<?xml version="1.0"?>
<svg xmlns="http://www.w3.org/2000/svg" xmlns:xlink="http://www.w3.org/1999/xlink" xmlns:svgjs="http://svgjs.com/svgjs" version="1.1" width="512" height="512" x="0" y="0" viewBox="0 0 512 512" style="enable-background:new 0 0 512 512" xml:space="preserve" class=""><g><path xmlns="http://www.w3.org/2000/svg" d="m512 256c0 141.386719-114.613281 256-256 256s-256-114.613281-256-256 114.613281-256 256-256 256 114.613281 256 256zm0 0" fill="#407bff" data-original="#ffe955" style="" class=""/><path xmlns="http://www.w3.org/2000/svg" d="m512 256c0 141.378906-114.621094 256-256 256s-256-114.621094-256-256c0-46.21875 12.25-89.570312 33.679688-127 44.121093 77.070312 127.160156 129 222.320312 129s178.210938-51.929688 222.320312-129c21.429688 37.429688 33.679688 80.78125 33.679688 127zm0 0" fill="#0779e4" data-original="#ffd112" style="" class=""/><path xmlns="http://www.w3.org/2000/svg" d="m481.261719 377.699219v.011719c-43.292969 79.96875-127.941407 134.289062-225.261719 134.289062s-181.96875-54.320312-225.261719-134.289062v-.011719zm0 0" fill="#0779e4" data-original="#ff9f00" style="" class=""/><path xmlns="http://www.w3.org/2000/svg" d="m390.980469 282.871094v190.699218c-10 6.210938-20.460938 11.757813-31.320313 16.570313h-207.28125c-10.878906-4.8125-21.347656-10.359375-31.359375-16.589844v-190.679687zm0 0" fill="#ff3445" data-original="#ff3445" style="" class=""/><path xmlns="http://www.w3.org/2000/svg" d="m390.980469 282.871094v190.699218c-10 6.210938-20.460938 11.757813-31.320313 16.570313h-174.199218v-207.269531zm0 0" fill="#dd1265" data-original="#dd1265" style="" class=""/><path xmlns="http://www.w3.org/2000/svg" d="m390.980469 282.871094v190.699218c-10 6.210938-20.460938 11.757813-31.320313 16.570313h-103.660156v-207.269531zm0 0" fill="#ba0d5c" data-original="#ba0d5c" style=""/><path xmlns="http://www.w3.org/2000/svg" d="m263.5625 367.691406v37.636719h11.457031v15.851563h-11.457031v68.960937h-15.851562v-68.960937h-10.730469v-15.851563h10.730469v-37.636719h-10.730469v-15.851562h10.730469v-68.96875h15.851562v68.96875h11.457031v15.851562zm0 0" fill="#ffffff" data-original="#ffffff" style="" class=""/><path xmlns="http://www.w3.org/2000/svg" d="m263.5625 367.691406v37.636719h11.457031v15.851563h-11.457031v68.960937h-7.5625v-207.269531h7.5625v68.96875h11.457031v15.851562zm0 0" fill="#d0f6ff" data-original="#d0f6ff" style="" class=""/><path xmlns="http://www.w3.org/2000/svg" d="m247.710938 345.59375h8.289062v6.246094h-8.289062zm0 0" fill="#d0f6ff" data-original="#d0f6ff" style="" class=""/><path xmlns="http://www.w3.org/2000/svg" d="m256 345.59375h7.5625v6.246094h-7.5625zm0 0" fill="#8fc9f7" data-original="#8fc9f7" style="" class=""/><path xmlns="http://www.w3.org/2000/svg" d="m247.710938 367.691406h8.289062v6.246094h-8.289062zm0 0" fill="#d0f6ff" data-original="#d0f6ff" style="" class=""/><path xmlns="http://www.w3.org/2000/svg" d="m256 367.691406h7.5625v6.246094h-7.5625zm0 0" fill="#8fc9f7" data-original="#8fc9f7" style="" class=""/><path xmlns="http://www.w3.org/2000/svg" d="m247.710938 399.085938h8.289062v6.242187h-8.289062zm0 0" fill="#d0f6ff" data-original="#d0f6ff" style="" class=""/><path xmlns="http://www.w3.org/2000/svg" d="m256 399.085938h7.5625v6.242187h-7.5625zm0 0" fill="#8fc9f7" data-original="#8fc9f7" style="" class=""/><path xmlns="http://www.w3.org/2000/svg" d="m247.710938 421.179688h8.289062v6.246093h-8.289062zm0 0" fill="#d0f6ff" data-original="#d0f6ff" style="" class=""/><path xmlns="http://www.w3.org/2000/svg" d="m256 421.179688h7.5625v6.246093h-7.5625zm0 0" fill="#8fc9f7" data-original="#8fc9f7" style="" class=""/><path xmlns="http://www.w3.org/2000/svg" d="m247.710938 282.871094h8.289062v43.011718h-8.289062zm0 0" fill="#d0f6ff" data-original="#d0f6ff" style="" class=""/><path xmlns="http://www.w3.org/2000/svg" d="m256 282.871094h7.5625v43.011718h-7.5625zm0 0" fill="#8fc9f7" data-original="#8fc9f7" style="" class=""/><path xmlns="http://www.w3.org/2000/svg" d="m204.484375 351.839844v15.851562h-11.460937v37.636719h11.460937v15.851563h-11.460937v68.960937h-15.851563v-68.960937h-10.730469v-15.851563h10.730469v-37.636719h-10.730469v-15.851562h10.730469v-68.96875h15.851563v68.96875zm0 0" fill="#ffffff" data-original="#ffffff" style="" class=""/><path xmlns="http://www.w3.org/2000/svg" d="m193.023438 367.691406v37.636719h11.460937v15.851563h-11.460937v68.960937h-7.5625v-207.269531h7.5625v68.96875h11.460937v15.851562zm0 0" fill="#d0f6ff" data-original="#d0f6ff" style="" class=""/><path xmlns="http://www.w3.org/2000/svg" d="m177.171875 421.179688h8.289063v6.246093h-8.289063zm0 0" fill="#d0f6ff" data-original="#d0f6ff" style="" class=""/><path xmlns="http://www.w3.org/2000/svg" d="m185.460938 421.179688h7.5625v6.246093h-7.5625zm0 0" fill="#8fc9f7" data-original="#8fc9f7" style="" class=""/><path xmlns="http://www.w3.org/2000/svg" d="m177.171875 399.085938h8.289063v6.242187h-8.289063zm0 0" fill="#d0f6ff" data-original="#d0f6ff" style="" class=""/><path xmlns="http://www.w3.org/2000/svg" d="m185.460938 399.085938h7.5625v6.242187h-7.5625zm0 0" fill="#8fc9f7" data-original="#8fc9f7" style="" class=""/><path xmlns="http://www.w3.org/2000/svg" d="m177.171875 367.691406h8.289063v6.246094h-8.289063zm0 0" fill="#d0f6ff" data-original="#d0f6ff" style="" class=""/><path xmlns="http://www.w3.org/2000/svg" d="m185.460938 367.691406h7.5625v6.246094h-7.5625zm0 0" fill="#8fc9f7" data-original="#8fc9f7" style="" class=""/><path xmlns="http://www.w3.org/2000/svg" d="m177.171875 345.59375h8.289063v6.246094h-8.289063zm0 0" fill="#d0f6ff" data-original="#d0f6ff" style="" class=""/><path xmlns="http://www.w3.org/2000/svg" d="m185.460938 345.59375h7.5625v6.246094h-7.5625zm0 0" fill="#8fc9f7" data-original="#8fc9f7" style="" class=""/><path xmlns="http://www.w3.org/2000/svg" d="m177.171875 282.871094h8.289063v43.011718h-8.289063zm0 0" fill="#d0f6ff" data-original="#d0f6ff" style="" class=""/><path xmlns="http://www.w3.org/2000/svg" d="m185.460938 282.871094h7.5625v43.011718h-7.5625zm0 0" fill="#8fc9f7" data-original="#8fc9f7" style="" class=""/><path xmlns="http://www.w3.org/2000/svg" d="m334.097656 367.691406v37.636719h11.460938v15.851563h-11.460938v68.960937h-15.851562v-68.960937h-10.730469v-15.851563h10.730469v-37.636719h-10.730469v-15.851562h10.730469v-68.96875h15.851562v68.96875h11.460938v15.851562zm0 0" fill="#ffffff" data-original="#ffffff" style="" class=""/><path xmlns="http://www.w3.org/2000/svg" d="m334.097656 367.691406v37.636719h11.460938v15.851563h-11.460938v68.960937h-7.558594v-207.269531h7.558594v68.96875h11.460938v15.851562zm0 0" fill="#d0f6ff" data-original="#d0f6ff" style="" class=""/><path xmlns="http://www.w3.org/2000/svg" d="m318.246094 282.871094h8.292968v43.011718h-8.292968zm0 0" fill="#d0f6ff" data-original="#d0f6ff" style="" class=""/><path xmlns="http://www.w3.org/2000/svg" d="m326.539062 282.871094h7.558594v43.011718h-7.558594zm0 0" fill="#8fc9f7" data-original="#8fc9f7" style="" class=""/><path xmlns="http://www.w3.org/2000/svg" d="m247.710938 447.128906h8.289062v43.011719h-8.289062zm0 0" fill="#d0f6ff" data-original="#d0f6ff" style="" class=""/><path xmlns="http://www.w3.org/2000/svg" d="m256 447.128906h7.5625v43.011719h-7.5625zm0 0" fill="#8fc9f7" data-original="#8fc9f7" style="" class=""/><path xmlns="http://www.w3.org/2000/svg" d="m177.171875 447.128906h8.289063v43.011719h-8.289063zm0 0" fill="#d0f6ff" data-original="#d0f6ff" style="" class=""/><path xmlns="http://www.w3.org/2000/svg" d="m185.460938 447.128906h7.5625v43.011719h-7.5625zm0 0" fill="#8fc9f7" data-original="#8fc9f7" style="" class=""/><path xmlns="http://www.w3.org/2000/svg" d="m318.246094 447.128906h8.292968v43.011719h-8.292968zm0 0" fill="#d0f6ff" data-original="#d0f6ff" style="" class=""/><path xmlns="http://www.w3.org/2000/svg" d="m326.539062 447.128906h7.558594v43.011719h-7.558594zm0 0" fill="#8fc9f7" data-original="#8fc9f7" style="" class=""/><path xmlns="http://www.w3.org/2000/svg" d="m318.246094 421.179688h8.292968v6.246093h-8.292968zm0 0" fill="#d0f6ff" data-original="#d0f6ff" style="" class=""/><path xmlns="http://www.w3.org/2000/svg" d="m326.539062 421.179688h7.558594v6.246093h-7.558594zm0 0" fill="#8fc9f7" data-original="#8fc9f7" style="" class=""/><path xmlns="http://www.w3.org/2000/svg" d="m318.246094 399.085938h8.292968v6.242187h-8.292968zm0 0" fill="#d0f6ff" data-original="#d0f6ff" style="" class=""/><path xmlns="http://www.w3.org/2000/svg" d="m326.539062 399.085938h7.558594v6.242187h-7.558594zm0 0" fill="#8fc9f7" data-original="#8fc9f7" style="" class=""/><path xmlns="http://www.w3.org/2000/svg" d="m318.246094 367.691406h8.292968v6.246094h-8.292968zm0 0" fill="#d0f6ff" data-original="#d0f6ff" style="" class=""/><path xmlns="http://www.w3.org/2000/svg" d="m326.539062 367.691406h7.558594v6.246094h-7.558594zm0 0" fill="#8fc9f7" data-original="#8fc9f7" style="" class=""/><path xmlns="http://www.w3.org/2000/svg" d="m318.246094 345.59375h8.292968v6.246094h-8.292968zm0 0" fill="#d0f6ff" data-original="#d0f6ff" style="" class=""/><path xmlns="http://www.w3.org/2000/svg" d="m326.539062 345.59375h7.558594v6.246094h-7.558594zm0 0" fill="#8fc9f7" data-original="#8fc9f7" style="" class=""/><path xmlns="http://www.w3.org/2000/svg" d="m421.058594 247.667969v62.515625l-330.117188-.152344v-62.363281zm0 0" fill="#d0f6ff" data-original="#d0f6ff" style="" class=""/><path xmlns="http://www.w3.org/2000/svg" d="m421.058594 247.667969v62.515625l-254.644532-.152344v-62.363281zm0 0" fill="#8fc9f7" data-original="#8fc9f7" style="" class=""/><path xmlns="http://www.w3.org/2000/svg" d="m406.871094 462.839844c-42.3125 30.910156-94.460938 49.160156-150.871094 49.160156-31.519531 0-61.710938-5.699219-89.589844-16.121094-22.019531-8.230468-42.609375-19.398437-61.269531-33.039062zm0 0" fill="#ffffff" data-original="#ffffff" style="" class=""/><path xmlns="http://www.w3.org/2000/svg" d="m406.871094 462.839844c-42.3125 30.910156-94.460938 49.160156-150.871094 49.160156-31.519531 0-61.710938-5.699219-89.589844-16.121094v-33.039062zm0 0" fill="#d0f6ff" data-original="#d0f6ff" style="" class=""/><g xmlns="http://www.w3.org/2000/svg" fill="#fff"><path d="m166.441406 367.484375h.195313v.207031h-.195313zm0 0" fill="#ffffff" data-original="#ffffff" style="" class=""/><path d="m166.441406 405.328125h.195313v.199219h-.195313zm0 0" fill="#ffffff" data-original="#ffffff" style="" class=""/><path d="m204.277344 367.484375h.207031v.207031h-.207031zm0 0" fill="#ffffff" data-original="#ffffff" style="" class=""/><path d="m204.277344 405.328125h.207031v.199219h-.207031zm0 0" fill="#ffffff" data-original="#ffffff" style="" class=""/></g><path xmlns="http://www.w3.org/2000/svg" d="m421.058594 247.667969v62.515625l-165.058594-.078125v-62.4375zm0 0" fill="#65b2ff" data-original="#65b2ff" style=""/><path xmlns="http://www.w3.org/2000/svg" d="m421 247.667969c-45.730469 16.617187-102.921875 26.507812-165 26.507812s-119.269531-9.890625-165-26.507812zm0 0" fill="#ffffff" data-original="#ffffff" style="" class=""/><path xmlns="http://www.w3.org/2000/svg" d="m421 247.667969c-45.730469 16.617187-102.921875 26.507812-165 26.507812v-26.507812zm0 0" fill="#d0f6ff" data-original="#d0f6ff" style="" class=""/><path xmlns="http://www.w3.org/2000/svg" d="m406.871094 462.839844c-42.3125 30.910156-94.460938 49.160156-150.871094 49.160156v-49.160156zm0 0" fill="#8fc9f7" data-original="#8fc9f7" style="" class=""/><path xmlns="http://www.w3.org/2000/svg" d="m272.996094 151.832031c-8.769532 3.726563-12.855469 13.863281-9.125 22.636719 1.863281 4.382812 5.324218 7.601562 9.421875 9.253906 4.09375 1.648438 8.824219 1.746094 13.207031-.117187 2.800781-1.191407 5.125-3.039063 6.863281-5.285157 4.976563-6.40625 11.714844-11.214843 19.179688-14.386718l133.101562-56.402344-7.308593-17.195312-133.101563 56.398437c-7.464844 3.171875-15.601563 4.6875-23.671875 3.824219-1.410156-.152344-2.851562-.136719-4.292969.074218-1.433593.210938-2.867187.601563-4.273437 1.199219zm0 0" fill="#ed771b" data-original="#ed771b" style="" class=""/><path xmlns="http://www.w3.org/2000/svg" d="m272.996094 151.832031c-8.769532 3.726563-12.855469 13.863281-9.125 22.636719l178.117187-75.535156-3.65625-8.601563-133.097656 56.402344c-7.464844 3.171875-15.601563 4.6875-23.671875 3.824219-1.410156-.152344-2.851562-.136719-4.296875.074218-1.429687.210938-2.863281.601563-4.269531 1.199219zm0 0" fill="#c55835" data-original="#c55835" style="" class=""/><path xmlns="http://www.w3.org/2000/svg" d="m231.398438 207.097656c8.773437 3.726563 12.855468 13.863282 9.128906 22.632813-1.867188 4.382812-5.328125 7.601562-9.421875 9.253906-4.097657 1.652344-8.824219 1.746094-13.210938-.117187-2.800781-1.191407-5.121093-3.035157-6.863281-5.28125-4.976562-6.410157-11.714844-11.21875-19.179688-14.390626l-133.097656-56.402343 7.308594-17.195313 133.097656 56.398438c7.46875 3.175781 15.601563 4.6875 23.671875 3.824218 1.410157-.148437 2.851563-.132812 4.296875.074219 1.433594.214844 2.867188.605469 4.269532 1.203125zm0 0" fill="#ed771b" data-original="#ed771b" style="" class=""/><path xmlns="http://www.w3.org/2000/svg" d="m231.398438 207.097656c8.773437 3.726563 12.855468 13.863282 9.128906 22.632813l-178.121094-75.535157 3.65625-8.597656 133.101562 56.398438c7.464844 3.175781 15.601563 4.6875 23.671876 3.824218 1.410156-.148437 2.851562-.136718 4.292968.074219 1.433594.214844 2.867188.605469 4.269532 1.203125zm0 0" fill="#c55835" data-original="#c55835" style="" class=""/></g></svg>
