<?xml version="1.0"?>
<svg xmlns="http://www.w3.org/2000/svg" xmlns:xlink="http://www.w3.org/1999/xlink" xmlns:svgjs="http://svgjs.com/svgjs" version="1.1" width="512" height="512" x="0" y="0" viewBox="0 0 512 512" style="enable-background:new 0 0 512 512" xml:space="preserve" class=""><g><path xmlns="http://www.w3.org/2000/svg" d="m512 256c0 141.386719-114.613281 256-256 256s-256-114.613281-256-256 114.613281-256 256-256 256 114.613281 256 256zm0 0" fill="#407bff" data-original="#9e69e2" style="" class=""/><path xmlns="http://www.w3.org/2000/svg" d="m512 256c0 141.378906-114.621094 256-256 256s-256-114.621094-256-256c0-46.21875 12.25-89.570312 33.679688-127 44.121093 77.070312 127.160156 129 222.320312 129s178.210938-51.929688 222.320312-129c21.429688 37.429688 33.679688 80.78125 33.679688 127zm0 0" fill="#0779e4" data-original="#8e4fd2" style="" class=""/><path xmlns="http://www.w3.org/2000/svg" d="m481.261719 377.699219v.011719c-43.292969 79.96875-127.941407 134.289062-225.261719 134.289062s-181.96875-54.320312-225.261719-134.289062v-.011719zm0 0" fill="#0779e4" data-original="#7038ba" style="" class=""/><path xmlns="http://www.w3.org/2000/svg" d="m292.808594 118.421875v386.617187c0 1.5625-.277344 3.0625-.808594 4.449219-11.761719 1.652344-23.78125 2.511719-36 2.511719-6.101562 0-12.148438-.210938-18.140625-.640625-6.007813-.410156-11.96875-1.039063-17.859375-1.871094-.53125-1.386719-.808594-2.886719-.808594-4.449219v-386.617187c0-6.972656 5.660156-12.632813 12.636719-12.632813h48.34375c6.976563 0 12.636719 5.660157 12.636719 12.632813zm0 0" fill="#ffd112" data-original="#ffd112" style="" class=""/><path xmlns="http://www.w3.org/2000/svg" d="m292.808594 118.421875v386.617187c0 1.5625-.277344 3.0625-.808594 4.449219-11.761719 1.652344-23.78125 2.511719-36 2.511719-6.101562 0-12.148438-.210938-18.140625-.640625v-405.570313h42.3125c6.976563 0 12.636719 5.660157 12.636719 12.632813zm0 0" fill="#ff9f00" data-original="#ff9f00" style=""/><path xmlns="http://www.w3.org/2000/svg" d="m292.808594 118.421875v386.617187c0 1.5625-.277344 3.0625-.808594 4.449219-11.761719 1.652344-23.78125 2.511719-36 2.511719v-406.210938h24.171875c6.976563 0 12.636719 5.660157 12.636719 12.632813zm0 0" fill="#ed771b" data-original="#ed771b" style=""/><path xmlns="http://www.w3.org/2000/svg" d="m292.804688 118.421875v23.289063h-73.609376v-23.289063c0-6.976563 5.65625-12.632813 12.628907-12.632813h48.351562c6.972657 0 12.628907 5.65625 12.628907 12.632813zm0 0" fill="#ffe955" data-original="#ffe955" style=""/><path xmlns="http://www.w3.org/2000/svg" d="m219.195312 385.671875h73.609376v35.921875h-73.609376zm0 0" fill="#ffe955" data-original="#ffe955" style=""/><path xmlns="http://www.w3.org/2000/svg" d="m292.808594 481.75v23.289062c0 1.5625-.277344 3.0625-.808594 4.449219-11.761719 1.652344-23.78125 2.511719-36 2.511719-6.101562 0-12.148438-.210938-18.140625-.640625-6.007813-.410156-11.96875-1.039063-17.859375-1.871094-.53125-1.386719-.808594-2.886719-.808594-4.449219v-23.289062zm0 0" fill="#ffe955" data-original="#ffe955" style=""/><path xmlns="http://www.w3.org/2000/svg" d="m292.804688 118.421875v23.289063h-54.945313v-35.921876h42.316406c6.972657 0 12.628907 5.65625 12.628907 12.632813zm0 0" fill="#ffd112" data-original="#ffd112" style="" class=""/><path xmlns="http://www.w3.org/2000/svg" d="m237.859375 385.671875h54.945313v35.921875h-54.945313zm0 0" fill="#ffd112" data-original="#ffd112" style="" class=""/><path xmlns="http://www.w3.org/2000/svg" d="m292.808594 481.75v23.289062c0 1.5625-.277344 3.0625-.808594 4.449219-11.761719 1.652344-23.78125 2.511719-36 2.511719-6.101562 0-12.148438-.210938-18.140625-.640625v-29.609375zm0 0" fill="#ffd112" data-original="#ffd112" style="" class=""/><g xmlns="http://www.w3.org/2000/svg" fill="#c55835"><path d="m274.128906 173.242188c0 10.011718-8.117187 18.128906-18.128906 18.128906s-18.128906-8.117188-18.128906-18.128906c0-10.011719 8.117187-18.125 18.128906-18.125s18.128906 8.113281 18.128906 18.125zm0 0" fill="#c55835" data-original="#c55835" style=""/><path d="m274.128906 233.203125c0 10.011719-8.117187 18.128906-18.128906 18.128906s-18.128906-8.117187-18.128906-18.128906 8.117187-18.128906 18.128906-18.128906 18.128906 8.117187 18.128906 18.128906zm0 0" fill="#c55835" data-original="#c55835" style=""/><path d="m274.128906 293.167969c0 10.011719-8.117187 18.128906-18.128906 18.128906s-18.128906-8.117187-18.128906-18.128906 8.117187-18.128907 18.128906-18.128907 18.128906 8.117188 18.128906 18.128907zm0 0" fill="#c55835" data-original="#c55835" style=""/><path d="m274.128906 353.128906c0 10.011719-8.117187 18.128906-18.128906 18.128906s-18.128906-8.117187-18.128906-18.128906c0-10.011718 8.117187-18.128906 18.128906-18.128906s18.128906 8.117188 18.128906 18.128906zm0 0" fill="#c55835" data-original="#c55835" style=""/><path d="m274.128906 451.261719c0 10.011719-8.117187 18.125-18.128906 18.125s-18.128906-8.113281-18.128906-18.125 8.117187-18.128907 18.128906-18.128907 18.128906 8.117188 18.128906 18.128907zm0 0" fill="#c55835" data-original="#c55835" style=""/></g><path xmlns="http://www.w3.org/2000/svg" d="m292.804688 118.421875v23.289063h-36.804688v-35.921876h24.175781c6.972657 0 12.628907 5.65625 12.628907 12.632813zm0 0" fill="#ff9f00" data-original="#ff9f00" style=""/><path xmlns="http://www.w3.org/2000/svg" d="m256 385.671875h36.804688v35.921875h-36.804688zm0 0" fill="#ff9f00" data-original="#ff9f00" style=""/><path xmlns="http://www.w3.org/2000/svg" d="m292.808594 481.75v23.289062c0 1.5625-.277344 3.0625-.808594 4.449219-11.761719 1.652344-23.78125 2.511719-36 2.511719v-30.25zm0 0" fill="#ff9f00" data-original="#ff9f00" style=""/><path xmlns="http://www.w3.org/2000/svg" d="m274.128906 451.261719c0 10.011719-8.113281 18.125-18.128906 18.125v-36.253907c10.015625 0 18.128906 8.113282 18.128906 18.128907zm0 0" fill="#82240b" data-original="#82240b" style=""/><path xmlns="http://www.w3.org/2000/svg" d="m274.128906 353.128906c0 10.011719-8.113281 18.128906-18.128906 18.128906v-36.257812c10.015625 0 18.128906 8.113281 18.128906 18.128906zm0 0" fill="#82240b" data-original="#82240b" style=""/><path xmlns="http://www.w3.org/2000/svg" d="m274.128906 293.167969c0 10.007812-8.113281 18.128906-18.128906 18.128906v-36.257813c10.015625 0 18.128906 8.113282 18.128906 18.128907zm0 0" fill="#82240b" data-original="#82240b" style=""/><path xmlns="http://www.w3.org/2000/svg" d="m274.128906 233.203125c0 10.015625-8.113281 18.128906-18.128906 18.128906v-36.257812c10.015625 0 18.128906 8.121093 18.128906 18.128906zm0 0" fill="#82240b" data-original="#82240b" style=""/><path xmlns="http://www.w3.org/2000/svg" d="m256 191.371094v-36.253906c10.015625 0 18.128906 8.113281 18.128906 18.125 0 10.011718-8.113281 18.128906-18.128906 18.128906zm0 0" fill="#82240b" data-original="#82240b" style=""/></g></svg>
