<?xml version="1.0"?>
<svg xmlns="http://www.w3.org/2000/svg" xmlns:xlink="http://www.w3.org/1999/xlink" xmlns:svgjs="http://svgjs.com/svgjs" version="1.1" width="512" height="512" x="0" y="0" viewBox="0 0 512 512" style="enable-background:new 0 0 512 512" xml:space="preserve" class=""><g><path xmlns="http://www.w3.org/2000/svg" d="m512 256c0 141.386719-114.613281 256-256 256s-256-114.613281-256-256 114.613281-256 256-256 256 114.613281 256 256zm0 0" fill="#407bff" data-original="#ffe955" style="" class=""/><path xmlns="http://www.w3.org/2000/svg" d="m512 256c0 141.378906-114.621094 256-256 256s-256-114.621094-256-256c0-46.21875 12.25-89.570312 33.679688-127 44.121093 77.070312 127.160156 129 222.320312 129s178.210938-51.929688 222.320312-129c21.429688 37.429688 33.679688 80.78125 33.679688 127zm0 0" fill="#0779e4" data-original="#ffd112" style="" class=""/><path xmlns="http://www.w3.org/2000/svg" d="m481.261719 377.699219v.011719c-43.292969 79.96875-127.941407 134.289062-225.261719 134.289062s-181.96875-54.320312-225.261719-134.289062v-.011719zm0 0" fill="#0779e4" data-original="#ff9f00" style="" class=""/><path xmlns="http://www.w3.org/2000/svg" d="m385.960938 442.039062c0 13.941407-3.140626 27.28125-8.859376 39.550782-36.0625 19.398437-77.292968 30.410156-121.101562 30.410156s-85.039062-11.011719-121.101562-30.410156c-5.71875-12.269532-8.859376-25.609375-8.859376-39.550782 0-24.269531 9.382813-47.257812 27.132813-66.5 14.589844-15.839843 18.90625-38.277343 11.257813-58.527343-4.320313-11.460938-6.417969-23.542969-6.25-35.960938v-.160156c0-.199219.011718-.390625.011718-.582031.386719-16.636719 11.019532-30.917969 25.769532-36.867188 3.578124-1.453125 7.429687 1.269532 7.429687 5.136719v.070313c0 27.101562 16.679687 50.292968 40.320313 59.902343 7.5 3.050781 15.699218 4.730469 24.289062 4.730469s16.789062-1.679688 24.289062-4.730469c23.640626-9.609375 40.320313-32.800781 40.320313-59.902343v-.070313c0-3.867187 3.851563-6.589844 7.429687-5.136719 14.75 5.929688 25.390626 20.167969 25.769532 36.789063.011718.71875.03125 1.46875.03125 2.230469 0 11.71875-2.058594 23.199218-6.109375 34.078124-7.640625 20.570313-3.25 43.300782 11.429687 59.359376 17.53125 19.160156 26.800782 42.042968 26.800782 66.140624zm0 0" fill="#dd1265" data-original="#dd1265" style="" class=""/><path xmlns="http://www.w3.org/2000/svg" d="m359.160156 375.898438c-14.679687-16.058594-19.070312-38.789063-11.429687-59.359376 4.050781-10.878906 6.109375-22.359374 6.109375-34.078124 0-.761719-.019532-1.511719-.03125-2.230469-.378906-16.621094-11.019532-30.859375-25.769532-36.789063-3.589843-1.453125-7.429687 1.269532-7.429687 5.128906v.078126c0 35.691406-28.929687 64.632812-64.609375 64.632812v198.71875c43.808594 0 85.039062-11.011719 121.101562-30.410156 5.71875-12.269532 8.859376-25.609375 8.859376-39.550782 0-24.097656-9.269532-46.980468-26.800782-66.140624zm0 0" fill="#ba0d5c" data-original="#ba0d5c" style=""/><path xmlns="http://www.w3.org/2000/svg" d="m362.261719 442.035156v.101563c0 5.652343-4.585938 10.242187-10.242188 10.242187h-117.066406c-21.484375 0-38.902344-17.417968-38.902344-38.90625v-57.347656c0-16.820312 16.425781-28.804688 32.410157-23.546875 8.667968 2.855469 17.925781 4.398437 27.539062 4.398437 26.578125 0 50.445312-11.804687 66.652344-30.457031 1.234375-1.421875 3.550781-.078125 2.886718 1.683594-.011718.023437-.019531.058594-.03125.089844-10.738281 28.917969-4.542968 60.953125 16.160157 83.605469h.011719c13.460937 14.730468 20.582031 32.058593 20.582031 50.136718zm0 0" fill="#ffffff" data-original="#ffffff" style=""/><path xmlns="http://www.w3.org/2000/svg" d="m341.679688 391.898438h-.011719c-20.703125-22.652344-26.898438-54.6875-16.160157-83.605469.011719-.035157.019532-.066407.03125-.089844.660157-1.761719-1.652343-3.109375-2.886718-1.6875-16.207032 18.65625-40.074219 30.460937-66.652344 30.460937v115.402344h96.019531c5.65625 0 10.242188-4.589844 10.242188-10.242187v-.101563c0-18.078125-7.121094-35.40625-20.582031-50.136718zm0 0" fill="#d0f6ff" data-original="#d0f6ff" style=""/><path xmlns="http://www.w3.org/2000/svg" d="m294.871094 424.0625v2.753906c0 5.269532-4.265625 9.535156-9.535156 9.535156h-58.671876c-5.269531 0-9.535156-4.265624-9.535156-9.535156v-2.753906c0-5.269531 4.265625-9.539062 9.535156-9.539062h58.671876c5.269531 0 9.535156 4.269531 9.535156 9.539062zm0 0" fill="#474f6f" data-original="#474f6f" style=""/><path xmlns="http://www.w3.org/2000/svg" d="m281.359375 367.808594h-50.71875l1.339844-59.148438 3.371093-148.082031h41.296876l3.371093 148.082031zm0 0" fill="#474f6f" data-original="#474f6f" style=""/><path xmlns="http://www.w3.org/2000/svg" d="m281.359375 367.808594h-50.71875l1.339844-59.148438c7.429687 2.980469 15.53125 4.621094 24.019531 4.621094s16.589844-1.640625 24.019531-4.621094zm0 0" fill="#313b5a" data-original="#313b5a" style=""/><path xmlns="http://www.w3.org/2000/svg" d="m281.359375 367.808594h-25.359375v-207.230469h20.648438l3.371093 148.082031zm0 0" fill="#313b5a" data-original="#313b5a" style=""/><path xmlns="http://www.w3.org/2000/svg" d="m281.359375 367.808594h-25.359375v-54.527344c8.488281 0 16.589844-1.640625 24.019531-4.621094zm0 0" fill="#20273a" data-original="#20273a" style=""/><path xmlns="http://www.w3.org/2000/svg" d="m275.886719 118.3125 1.320312 73.3125h-42.414062l1.320312-73.3125zm0 0" fill="#313b5a" data-original="#313b5a" style=""/><path xmlns="http://www.w3.org/2000/svg" d="m275.886719 118.3125 1.320312 73.3125h-21.207031v-73.3125zm0 0" fill="#20273a" data-original="#20273a" style=""/><path xmlns="http://www.w3.org/2000/svg" d="m294.136719 74.410156-16.507813 85.996094h-43.257812l-16.507813-85.996094c-.460937-2.398437-.316406-4.871094.414063-7.199218l7.734375-24.582032c1.929687-6.136718 7.621093-10.3125 14.054687-10.3125h31.867188c6.433594 0 12.125 4.175782 14.054687 10.3125l7.734375 24.582032c.730469 2.328124.875 4.800781.414063 7.199218zm0 0" fill="#dd1265" data-original="#dd1265" style="" class=""/><path xmlns="http://www.w3.org/2000/svg" d="m294.136719 74.410156-16.507813 85.996094h-21.628906v-128.089844h15.933594c6.433594 0 12.125 4.175782 14.054687 10.3125l7.734375 24.582032c.730469 2.328124.875 4.800781.414063 7.199218zm0 0" fill="#ba0d5c" data-original="#ba0d5c" style=""/><path xmlns="http://www.w3.org/2000/svg" d="m285.335938 414.523438h-29.335938v21.828124h29.335938c5.269531 0 9.535156-4.265624 9.535156-9.535156v-2.753906c0-5.269531-4.265625-9.539062-9.535156-9.539062zm0 0" fill="#313b5a" data-original="#313b5a" style=""/><path xmlns="http://www.w3.org/2000/svg" d="m294.871094 376.15625v2.757812c0 5.269532-4.265625 9.535157-9.535156 9.535157h-58.671876c-5.269531 0-9.535156-4.265625-9.535156-9.535157v-2.757812c0-5.269531 4.265625-9.535156 9.535156-9.535156h58.671876c5.269531 0 9.535156 4.265625 9.535156 9.535156zm0 0" fill="#474f6f" data-original="#474f6f" style=""/><path xmlns="http://www.w3.org/2000/svg" d="m285.335938 366.621094h-29.335938v21.828125h29.335938c5.269531 0 9.535156-4.265625 9.535156-9.535157v-2.757812c0-5.269531-4.265625-9.535156-9.535156-9.535156zm0 0" fill="#313b5a" data-original="#313b5a" style=""/><path xmlns="http://www.w3.org/2000/svg" d="m294.21875 475.1875c0 5.621094-4.558594 10.175781-10.179688 10.175781h-56.078124c-5.621094 0-10.175782-4.554687-10.175782-10.175781s4.554688-10.175781 10.175782-10.175781h56.078124c5.621094 0 10.179688 4.554687 10.179688 10.175781zm0 0" fill="#d0f6ff" data-original="#d0f6ff" style=""/><path xmlns="http://www.w3.org/2000/svg" d="m256 465.011719v20.351562h28.039062c5.621094 0 10.179688-4.554687 10.179688-10.175781s-4.558594-10.175781-10.179688-10.175781zm0 0" fill="#8fc9f7" data-original="#8fc9f7" style=""/><path xmlns="http://www.w3.org/2000/svg" d="m325.199219 417.980469-3.992188 20.484375-4.828125 24.726562c-1.753906 9.039063-9.722656 15.597656-18.929687 15.597656h-13.527344c-2.125 0-3.855469-1.730468-3.855469-3.855468 0-2.128906 1.730469-3.859375 3.855469-3.859375h13.527344c5.523437 0 10.296875-3.933594 11.355469-9.359375l4.785156-24.550782 4.035156-20.65625c.40625-2.097656 2.433594-3.464843 4.519531-3.054687 2.09375.40625 3.460938 2.433594 3.054688 4.527344zm0 0" fill="#474f6f" data-original="#474f6f" style=""/><path xmlns="http://www.w3.org/2000/svg" d="m325.199219 417.980469-8.820313 45.210937c-1.753906 9.039063-9.722656 15.597656-18.929687 15.597656h-13.523438c-2.128906 0-3.859375-1.730468-3.859375-3.855468h17.382813c7.386719 0 13.738281-5.238282 15.148437-12.480469l9.546875-49c2.09375.40625 3.460938 2.433594 3.054688 4.527344zm0 0" fill="#313b5a" data-original="#313b5a" style=""/><path xmlns="http://www.w3.org/2000/svg" d="m325.199219 417.980469-3.992188 20.484375-3.8125-.648438-3.804687-.652344 4.035156-20.65625c.40625-2.097656 2.4375-3.464843 4.519531-3.054687 2.09375.40625 3.460938 2.433594 3.054688 4.527344zm0 0" fill="#0779e4" data-original="#ffd112" style="" class=""/><path xmlns="http://www.w3.org/2000/svg" d="m325.199219 417.980469-3.992188 20.484375-3.8125-.648438 4.75-24.363281c2.09375.40625 3.460938 2.433594 3.054688 4.527344zm0 0" fill="#0779e4" data-original="#ff9f00" style="" class=""/><g xmlns="http://www.w3.org/2000/svg" fill="#313b5a"><path d="m243.796875 60.175781c0 3.320313-2.691406 6.015625-6.015625 6.015625-3.320312 0-6.011719-2.695312-6.011719-6.015625 0-3.320312 2.691407-6.011719 6.011719-6.011719 3.324219 0 6.015625 2.691407 6.015625 6.011719zm0 0" fill="#313b5a" data-original="#313b5a" style=""/><path d="m243.796875 83.878906c0 3.320313-2.691406 6.011719-6.015625 6.011719-3.320312 0-6.011719-2.691406-6.011719-6.011719 0-3.324218 2.691407-6.015625 6.011719-6.015625 3.324219 0 6.015625 2.691407 6.015625 6.015625zm0 0" fill="#313b5a" data-original="#313b5a" style=""/><path d="m243.796875 107.574219c0 3.324219-2.691406 6.015625-6.015625 6.015625-3.320312 0-6.011719-2.691406-6.011719-6.015625 0-3.320313 2.691407-6.011719 6.011719-6.011719 3.324219 0 6.015625 2.691406 6.015625 6.011719zm0 0" fill="#313b5a" data-original="#313b5a" style=""/></g><path xmlns="http://www.w3.org/2000/svg" d="m280.230469 60.175781c0 3.320313-2.691407 6.015625-6.011719 6.015625-3.324219 0-6.015625-2.695312-6.015625-6.015625 0-3.320312 2.691406-6.011719 6.015625-6.011719 3.320312 0 6.011719 2.691407 6.011719 6.011719zm0 0" fill="#20273a" data-original="#20273a" style=""/><path xmlns="http://www.w3.org/2000/svg" d="m280.230469 83.878906c0 3.320313-2.691407 6.011719-6.011719 6.011719-3.324219 0-6.015625-2.691406-6.015625-6.011719 0-3.324218 2.691406-6.015625 6.015625-6.015625 3.320312 0 6.011719 2.691407 6.011719 6.015625zm0 0" fill="#20273a" data-original="#20273a" style=""/><path xmlns="http://www.w3.org/2000/svg" d="m280.230469 107.574219c0 3.324219-2.691407 6.015625-6.011719 6.015625-3.324219 0-6.015625-2.691406-6.015625-6.015625 0-3.320313 2.691406-6.011719 6.015625-6.011719 3.320312 0 6.011719 2.691406 6.011719 6.011719zm0 0" fill="#20273a" data-original="#20273a" style=""/></g></svg>
