<?xml version="1.0"?>
<svg xmlns="http://www.w3.org/2000/svg" xmlns:xlink="http://www.w3.org/1999/xlink" xmlns:svgjs="http://svgjs.com/svgjs" version="1.1" width="512" height="512" x="0" y="0" viewBox="0 0 512 512" style="enable-background:new 0 0 512 512" xml:space="preserve" class=""><g><path xmlns="http://www.w3.org/2000/svg" d="m512 256c0 63.019531-22.78125 120.71875-60.539062 165.328125-10.199219 12.050781-21.5 23.140625-33.742188 33.121094-44.089844 35.980469-100.378906 57.550781-161.71875 57.550781s-117.628906-21.570312-161.71875-57.550781c-12.242188-9.980469-23.542969-21.070313-33.742188-33.121094-37.757812-44.609375-60.539062-102.308594-60.539062-165.328125 0-141.378906 114.621094-256 256-256s256 114.621094 256 256zm0 0" fill="#407bff" data-original="#9e69e2" style="" class=""/><path xmlns="http://www.w3.org/2000/svg" d="m512 256c0 75.269531-32.488281 142.949219-84.199219 189.800781-45.429687 41.128907-105.691406 66.199219-171.800781 66.199219s-126.371094-25.070312-171.800781-66.199219c-51.710938-46.851562-84.199219-114.53125-84.199219-189.800781 0-46.21875 12.25-89.570312 33.679688-127 44.121093 77.070312 127.160156 129 222.320312 129s178.210938-51.929688 222.320312-129c21.429688 37.429688 33.679688 80.78125 33.679688 127zm0 0" fill="#0779e4" data-original="#8e4fd2" style="" class=""/><path xmlns="http://www.w3.org/2000/svg" d="m481.261719 377.699219v.011719c-5.273438 9.738281-11.160157 19.097656-17.613281 28.027343-43.410157 60.113281-112.308594 100.632813-190.847657 105.710938-1.03125.070312-2.0625.128906-3.089843.179687-.832032.042969-1.660157.082032-2.492188.109375-.070312 0-.140625.011719-.207031.011719-.101563 0-.191407.011719-.292969.011719-.777344.027343-1.546875.058593-2.328125.089843-1.082031.039063-2.171875.070313-3.25.089844-.859375.019532-1.710937.039063-2.570313.039063-.859374.019531-1.710937.019531-2.570312.019531-1.71875 0-3.429688-.019531-5.140625-.058594-83.359375-1.632812-156.960937-43.132812-202.507813-106.203125-6.453124-8.929687-12.339843-18.289062-17.613281-28.027343v-.011719zm0 0" fill="#0779e4" data-original="#7038ba" style="" class=""/><path xmlns="http://www.w3.org/2000/svg" d="m463.648438 235.339844v170.398437c-10.527344 14.582031-22.546876 28-35.847657 40.042969-41.539062 37.640625-95.5 61.820312-155 65.667969-1.03125.070312-2.0625.128906-3.089843.179687-.832032.042969-1.660157.082032-2.492188.109375-.070312 0-.140625.011719-.207031.011719-.101563 0-.191407.011719-.292969.011719-.777344.027343-1.546875.058593-2.328125.089843-1.082031.039063-2.171875.070313-3.25.089844-.269531.007813-.539063.007813-.800781.019532-1.441406.027343-2.890625.039062-4.339844.039062-.859375 0-1.710938 0-2.570312-.019531-.859376 0-1.710938-.019531-2.570313-.039063-64.089844-1.25-122.417969-26.082031-166.660156-66.152344-13.300781-12.050781-25.320313-25.46875-35.847657-40.050781v-170.398437c0-6.96875 4.269532-12.628906 9.539063-12.628906h396.21875c5.269531 0 9.539063 5.660156 9.539063 12.628906zm0 0" fill="#313b5a" data-original="#313b5a" style="" class=""/><path xmlns="http://www.w3.org/2000/svg" d="m463.648438 232.261719v173.476562c-10.527344 14.582031-22.546876 28-35.847657 40.050781-44.242187 40.070313-102.570312 64.902344-166.660156 66.152344-.859375.019532-1.710937.039063-2.570313.039063-.859374.019531-1.710937.019531-2.570312.019531v-289.289062h198.109375c5.269531 0 9.539063 4.277343 9.539063 9.550781zm0 0" fill="#20273a" data-original="#20273a" style="" class=""/><path xmlns="http://www.w3.org/2000/svg" d="m427.800781 277.820312v167.980469c-45.429687 41.128907-105.691406 66.199219-171.800781 66.199219s-126.371094-25.070312-171.800781-66.199219v-167.980469c0-7.070312 3.53125-12.800781 7.890625-12.800781h327.820312c4.359375 0 7.890625 5.730469 7.890625 12.800781zm0 0" fill="#545d7a" data-original="#545d7a" style="" class=""/><path xmlns="http://www.w3.org/2000/svg" d="m427.800781 272.929688v172.859374c-44.242187 40.070313-102.570312 64.902344-166.660156 66.152344-.859375.019532-1.710937.039063-2.570313.039063-.859374.019531-1.710937.019531-2.570312.019531v-246.980469h163.910156c4.359375 0 7.890625 3.539063 7.890625 7.910157zm0 0" fill="#474f6f" data-original="#474f6f" style="" class=""/><path xmlns="http://www.w3.org/2000/svg" d="m128.257812 303.9375h-4.710937c-3.523437 0-6.382813 2.859375-6.382813 6.382812v148.71875c0 4.847657 3.929688 8.773438 8.777344 8.773438h30.933594v-163.871094h-28.617188zm0 0" fill="#ffffff" data-original="#ffffff" style=""/><path xmlns="http://www.w3.org/2000/svg" d="m175.492188 303.9375h15.089843v163.875h-38.707031v-163.875zm0 0" fill="#d0f6ff" data-original="#d0f6ff" style=""/><path xmlns="http://www.w3.org/2000/svg" d="m197.675781 303.9375h-11.09375v163.875h40.710938v-163.875zm0 0" fill="#ffffff" data-original="#ffffff" style=""/><path xmlns="http://www.w3.org/2000/svg" d="m244.90625 303.9375h16.09375v163.875h-39.707031v-163.875zm0 0" fill="#d0f6ff" data-original="#d0f6ff" style=""/><path xmlns="http://www.w3.org/2000/svg" d="m267.09375 303.9375h-11.09375v163.875h39.707031v-163.875zm0 0" fill="#ffffff" data-original="#ffffff" style=""/><path xmlns="http://www.w3.org/2000/svg" d="m314.324219 303.9375h15.09375v163.875h-38.710938v-163.875zm0 0" fill="#d0f6ff" data-original="#d0f6ff" style=""/><path xmlns="http://www.w3.org/2000/svg" d="m336.507812 303.9375h-11.089843v163.875h39.707031l-5-69.40625 5-94.46875zm0 0" fill="#ffffff" data-original="#ffffff" style=""/><path xmlns="http://www.w3.org/2000/svg" d="m383.742188 303.9375h4.710937c3.523437 0 6.382813 2.859375 6.382813 6.382812v148.71875c0 4.847657-3.929688 8.773438-8.777344 8.773438h-25.933594v-163.871094h23.617188zm0 0" fill="#d0f6ff" data-original="#d0f6ff" style=""/><g xmlns="http://www.w3.org/2000/svg" fill="#313b5a"><path d="m175.492188 303.9375v87.214844c0 4.003906-3.25 7.253906-7.253907 7.253906h-32.726562c-4.003907 0-7.253907-3.25-7.253907-7.253906v-87.214844zm0 0" fill="#313b5a" data-original="#313b5a" style="" class=""/><path d="m244.910156 303.9375v87.214844c0 4.003906-3.25 7.253906-7.253906 7.253906h-32.726562c-4.007813 0-7.253907-3.25-7.253907-7.253906v-87.214844zm0 0" fill="#313b5a" data-original="#313b5a" style="" class=""/><path d="m314.324219 303.9375v87.214844c0 4.003906-3.246094 7.253906-7.253907 7.253906h-32.726562c-4.003906 0-7.253906-3.25-7.253906-7.253906v-87.214844zm0 0" fill="#313b5a" data-original="#313b5a" style="" class=""/><path d="m383.742188 303.9375v87.214844c0 4.003906-3.25 7.253906-7.253907 7.253906h-32.726562c-4.003907 0-7.25-3.25-7.25-7.253906v-87.214844zm0 0" fill="#313b5a" data-original="#313b5a" style="" class=""/></g><path xmlns="http://www.w3.org/2000/svg" d="m175.492188 303.9375v87.214844c0 4.003906-3.25 7.253906-7.253907 7.253906h-16.363281v-94.46875zm0 0" fill="#20273a" data-original="#20273a" style="" class=""/><path xmlns="http://www.w3.org/2000/svg" d="m244.910156 303.9375v87.214844c0 4.003906-3.25 7.253906-7.253906 7.253906h-16.363281v-94.46875zm0 0" fill="#20273a" data-original="#20273a" style="" class=""/><path xmlns="http://www.w3.org/2000/svg" d="m314.324219 303.9375v87.214844c0 4.003906-3.246094 7.253906-7.253907 7.253906h-16.363281v-94.46875zm0 0" fill="#20273a" data-original="#20273a" style="" class=""/><path xmlns="http://www.w3.org/2000/svg" d="m383.742188 303.9375v87.214844c0 4.003906-3.25 7.253906-7.253907 7.253906h-16.363281v-94.46875zm0 0" fill="#20273a" data-original="#20273a" style="" class=""/></g></svg>
